ffmpeg version 3.4.8-0ubuntu0.2 Copyright (c) 2000-2020 the FFmpeg developers
  built with gcc 7 (Ubuntu 7.5.0-3ubuntu1~18.04)
  configuration: --prefix=/usr --extra-version=0ubuntu0.2 --toolchain=hardened --libdir=/usr/lib/x86_64-linux-gnu --incdir=/usr/include/x86_64-linux-gnu --enable-gpl --disable-stripping --enable-avresample --enable-avisynth --enable-gnutls --enable-ladspa --enable-libass --enable-libbluray --enable-libbs2b --enable-libcaca --enable-libcdio --enable-libflite --enable-libfontconfig --enable-libfreetype --enable-libfribidi --enable-libgme --enable-libgsm --enable-libmp3lame --enable-libmysofa --enable-libopenjpeg --enable-libopenmpt --enable-libopus --enable-libpulse --enable-librubberband --enable-librsvg --enable-libshine --enable-libsnappy --enable-libsoxr --enable-libspeex --enable-libssh --enable-libtheora --enable-libtwolame --enable-libvorbis --enable-libvpx --enable-libwavpack --enable-libwebp --enable-libx265 --enable-libxml2 --enable-libxvid --enable-libzmq --enable-libzvbi --enable-omx --enable-openal --enable-opengl --enable-sdl2 --enable-libdc1394 --enable-libdrm --enable-libiec61883 --enable-chromaprint --enable-frei0r --enable-libopencv --enable-libx264 --enable-shared
  libavutil      55. 78.100 / 55. 78.100
  libavcodec     57.107.100 / 57.107.100
  libavformat    57. 83.100 / 57. 83.100
  libavdevice    57. 10.100 / 57. 10.100
  libavfilter     6.107.100 /  6.107.100
  libavresample   3.  7.  0 /  3.  7.  0
  libswscale      4.  8.100 /  4.  8.100
  libswresample   2.  9.100 /  2.  9.100
  libpostproc    54.  7.100 / 54.  7.100
[rawvideo @ 0x5566156b7a20] Estimating duration from bitrate, this may be inaccurate
Input #0, rawvideo, from '../../SVC-Encoder-20220109T061506Z-001/SVC-Encoder/Dataset/RollerCoaster/6f_2x2/tile_yuv/f0_t2_480x480.yuv':
  Duration: 00:00:10.00, start: 0.000000, bitrate: 82944 kb/s
    Stream #0:0: Video: rawvideo (I420 / 0x30323449), yuv420p, 480x480, 82944 kb/s, 30 tbr, 30 tbn, 30 tbc
Stream mapping:
  Stream #0:0 -> #0:0 (rawvideo (native) -> h264 (libx264))
Press [q] to stop, [?] for help
[libx264 @ 0x5566156c4c60] using cpu capabilities: MMX2 SSE2Fast LZCNT SSSE3 SSE4.2 AVX
[libx264 @ 0x5566156c4c60] profile High, level 3.0
Output #0, rawvideo, to 'RollerCoaster_f0_t2_480x480_x264_QP_32.h264':
  Metadata:
    encoder         : Lavf57.83.100
    Stream #0:0: Video: h264 (libx264), yuv420p, 480x480, q=-1--1, 30 fps, 30 tbn, 30 tbc
    Metadata:
      encoder         : Lavc57.107.100 libx264
    Side data:
      cpb: bitrate max/min/avg: 0/0/0 buffer size: 0 vbv_delay: -1
frame=  124 fps=0.0 q=38.0 PSNR=Y:nan U:nan V:nan *:nan size=      81kB time=00:00:02.70 bitrate= 247.1kbits/s speed=5.32x    frame=  220 fps=217 q=38.0 PSNR=Y:nan U:nan V:nan *:nan size=     165kB time=00:00:05.90 bitrate= 228.4kbits/s speed=5.81x    frame=  300 fps=190 q=38.0 LPSNR=Y:inf U:inf V:inf *:inf size=     264kB time=00:00:09.93 bitrate= 217.9kbits/s speed= 6.3x    
video:264kB audio:0kB subtitle:0kB other streams:0kB global headers:0kB muxing overhead: 0.000000%
[libx264 @ 0x5566156c4c60] frame I:2     Avg QP:31.06  size: 11779  PSNR Mean Y:38.34 U:43.43 V:46.45 Avg:39.62 Global:39.53
[libx264 @ 0x5566156c4c60] frame P:76    Avg QP:32.27  size:  2169  PSNR Mean Y:36.66 U:43.06 V:46.03 Avg:38.06 Global:38.04
[libx264 @ 0x5566156c4c60] frame B:222   Avg QP:37.48  size:   370  PSNR Mean Y:36.25 U:42.96 V:45.99 Avg:37.68 Global:37.67
[libx264 @ 0x5566156c4c60] consecutive B-frames:  1.3%  0.0%  0.0% 98.7%
[libx264 @ 0x5566156c4c60] mb I  I16..4: 29.3% 55.3% 15.4%
[libx264 @ 0x5566156c4c60] mb P  I16..4:  1.0%  0.8%  0.1%  P16..4: 32.6% 12.3%  3.9%  0.0%  0.0%    skip:49.3%
[libx264 @ 0x5566156c4c60] mb B  I16..4:  0.0%  0.0%  0.0%  B16..8: 24.1%  1.6%  0.1%  direct: 0.1%  skip:74.2%  L0:34.9% L1:63.1% BI: 2.0%
[libx264 @ 0x5566156c4c60] 8x8 transform intra:48.6% inter:71.3%
[libx264 @ 0x5566156c4c60] coded y,uvDC,uvAC intra: 39.8% 43.2% 14.9% inter: 4.0% 2.7% 0.0%
[libx264 @ 0x5566156c4c60] i16 v,h,dc,p: 34% 42% 11% 13%
[libx264 @ 0x5566156c4c60] i8 v,h,dc,ddl,ddr,vr,hd,vl,hu: 16% 19% 30%  4%  2%  3%  3% 16%  7%
[libx264 @ 0x5566156c4c60] i4 v,h,dc,ddl,ddr,vr,hd,vl,hu: 25% 20% 16%  5%  2%  3%  2% 23%  3%
[libx264 @ 0x5566156c4c60] i8c dc,h,v,p: 59% 19% 16%  7%
[libx264 @ 0x5566156c4c60] Weighted P-Frames: Y:1.3% UV:0.0%
[libx264 @ 0x5566156c4c60] ref P L0: 59.6% 20.5% 16.2%  3.6%  0.1%
[libx264 @ 0x5566156c4c60] ref B L0: 88.8% 10.1%  1.1%
[libx264 @ 0x5566156c4c60] ref B L1: 90.4%  9.6%
[libx264 @ 0x5566156c4c60] PSNR Mean Y:36.369 U:42.992 V:46.004 Avg:37.788 Global:37.768 kb/s:216.46
